<?xml version="1.0" encoding="UTF-8"?> <!-- Generator: Adobe Illustrator 25.0.1, SVG Export Plug-In . SVG Version: 6.00 Build 0) --> <svg xmlns="http://www.w3.org/2000/svg" xmlns:xlink="http://www.w3.org/1999/xlink" version="1.1" id="Layer_1" x="0px" y="0px" viewBox="0 0 182 61.1" style="enable-background:new 0 0 182 61.1;" xml:space="preserve"> <style type="text/css"> .st0{fill:#FFFFFF;} </style> <g> <g> <path class="st0" d="M145.6,38.5h-12.1v-4h10.8v-4.7h-10.8v-3.5h11.5v-4.7h-19.5v21.8h20.1V38.5z"></path> <path class="st0" d="M0,43.3h8.1v-8.4h10.6v-4.7H8.1v-4h11.2v-4.7H0V43.3z"></path> <path class="st0" d="M166,35.1c6.2-1.2,5.9,5.4,7.8,8.1h8.2c-1.4-2.1-2.3-9.2-6.3-10.2v-0.1c4.9-0.9,7.3-7.4,2.1-9.9 c-3.7-2.4-15.6-1.7-19.8-1.2v21.5h8V35.1L166,35.1z M166,25.7c8.6-1.7,9.7,6.3,0,5.2V25.7z"></path> <path class="st0" d="M64.2,38.7c-3,0-6-0.7-7.8-1.3l-1.6,4.8c5.8,2.8,22.9,1.1,21.7-5.6c0.9-6.1-11.7-6-13.2-9.1 c0.4-2.9,9.3-1,10.3-0.5l1.7-4.7c-5.4-2.6-21.1-0.9-20.1,5.6c0,3.3,3.4,5.2,8.4,6.5C69.6,35.4,70.1,38.7,64.2,38.7z"></path> <path class="st0" d="M96,34.6h8.9v8.7h7.2V21.5h-7.2v8H96v-8h-7.3v21.8H96V34.6z"></path> </g> </g> <g> <path class="st0" d="M44.6,29.8c5.1-13.1-5.9-8-12.1-3.1c-3.5,2.6-4.8,4.6-3.4,5.6c1.4,1,8.2-5.4,8.9-4.7 c0.9,2.9-4.3,10.3-7.3,18.1l0,0c-11.8,20.8,0.7,18.2,13.5,6.2c2.4-2.3,1.6-4.9-1.4-2.9c-1.8,1.2-6.6,5.2-8.6,6.1 C33.5,50.7,42.7,35.6,44.6,29.8z"></path> <path class="st0" d="M49.4,4.1C49.4,4.1,49.5,4.1,49.4,4.1L49.4,4.1c-0.7-8.2-9.1-2.6-8.4,3.4l0,0C41.7,15.5,50.1,10.1,49.4,4.1z"></path> </g> </svg> 